<svg xmlns="http://www.w3.org/2000/svg" width="20" height="20" viewBox="0 0 20 20" fill="currentColor"><path fill-rule="evenodd" clip-rule="evenodd" d="M4 0C1.79086 0 0 1.79086 0 4V16C0 18.2091 1.79086 20 4 20H16C18.2091 20 20 18.2091 20 16V4C20 1.79086 18.2091 0 16 0H4ZM7.88474 14H9.80972L6.69675 10.106L9.61172 6.66299H7.68674L5.09073 9.94099V6.66299H3.52875V14H5.09073V11.745L5.66272 11.063L7.88474 14ZM10.7763 13.087C11.5316 13.791 12.4593 14.143 13.5593 14.143C14.8133 14.143 15.8546 13.681 16.6833 12.757V9.94099H13.1853V11.305H15.1213V12.185C14.9599 12.339 14.7363 12.471 14.4503 12.581C14.1643 12.691 13.8673 12.746 13.5593 12.746C12.8919 12.746 12.3419 12.5187 11.9093 12.064C11.4766 11.6093 11.2603 11.0337 11.2603 10.337C11.2603 9.64034 11.4766 9.06467 11.9093 8.61C12.3419 8.15533 12.8919 7.92799 13.5593 7.92799C13.9333 7.92799 14.2706 8.01967 14.5713 8.203C14.8793 8.379 15.1213 8.60634 15.2973 8.88499L16.5953 8.181C15.9059 7.08833 14.894 6.54199 13.5593 6.54199C12.4593 6.54199 11.5316 6.89034 10.7763 7.58701C10.0283 8.28366 9.65427 9.20033 9.65427 10.337C9.65427 11.4663 10.0283 12.383 10.7763 13.087Z"></path></svg>