<svg xmlns="http://www.w3.org/2000/svg" width="100%" height="100%" viewBox="0 0 1568 301" fill="currentColor"><path d="M1516 39H1230C1201.28 39 1178 62.2187 1178 90.8605V210.14C1178 238.781 1201.28 262 1230 262H1516C1544.72 262 1568 238.781 1568 210.14V90.8605C1568 62.2187 1544.72 39 1516 39Z" fill="#E0015B"></path><path d="M1322.93 189H1298.77L1298.43 145.93L1279.17 189H1255.01L1250 113H1275.18L1274.73 159.489L1296.49 113H1313.82L1315.07 159.489L1335.01 113H1361.45L1322.93 189ZM1372.51 189H1349.5L1366.25 113H1389.27L1372.51 189ZM1457.14 189H1430.24L1418.51 161.54L1412.47 167.921L1407.79 189H1384.77L1401.53 113H1424.55L1418.62 139.891L1443.35 113H1472.64L1436.17 148.322L1457.14 189ZM1484.25 189H1461.23L1477.98 113H1501L1484.25 189Z" fill="white"></path><path d="M351.047 70.0684C372.403 70.0684 388.325 77.8084 398.68 93.1538L402.952 74.0717H452.403L417.712 235.136H368.132L372.015 216.455C359.33 231.533 344.444 239.143 327.358 239.143C309.496 239.143 295.257 233.266 284.643 221.662C274.029 209.919 268.723 193.642 268.723 172.421C268.706 156.228 271.739 140.185 277.653 125.183C283.628 109.858 293.35 96.3884 305.871 86.0844C318.686 75.4059 333.701 70.0684 351.047 70.0684ZM359.718 115.438C348.328 115.438 338.878 119.975 331.371 128.916C323.864 137.858 320.236 148.933 320.236 161.743C320.236 171.352 323.217 179.09 329.038 184.963C334.859 190.834 342.111 193.769 350.782 193.769C362.173 193.769 372.01 188.698 380.295 178.69L391.039 129.984C383.406 120.243 373.051 115.438 359.718 115.438Z"></path><path d="M731.299 239.14C716.772 239.184 702.352 236.563 688.714 231.4C675.76 226.739 663.898 219.328 653.894 209.648L680.171 176.551C685.737 182.555 693.892 188.294 704.633 193.634C715.375 198.974 725.732 201.641 735.829 201.641C740.747 201.641 744.76 200.573 747.866 198.304C750.847 196.036 752.396 193.233 752.396 189.898C752.396 185.495 748.384 181.492 740.229 178.155C731.536 174.626 722.629 171.685 713.564 169.348C703.645 166.708 694.494 161.626 686.9 154.536C682.989 151.082 679.87 146.779 677.766 141.934C675.662 137.088 674.626 131.823 674.732 126.516C674.732 110.902 680.686 97.5597 692.724 86.4832C704.763 75.407 721.074 69.8011 741.784 69.8011C754.799 69.7714 767.72 72.0742 779.969 76.6064C791.612 80.7418 802.314 87.2801 811.423 95.8223L787.477 127.582C782.945 122.511 776.341 117.84 767.671 113.703C759.586 109.716 750.746 107.62 741.783 107.565C736.347 107.565 732.076 108.632 728.969 110.901C725.862 113.169 724.309 115.838 724.309 118.907C724.309 121.977 727.027 124.783 732.463 127.047C738.818 129.779 745.349 132.053 752.009 133.853C759.766 136.157 767.375 138.965 774.789 142.259C782.283 145.584 788.929 150.654 794.205 157.071C799.642 163.609 802.36 171.616 802.36 180.957C802.36 197.637 795.888 211.514 783.071 222.458C770.131 233.668 752.917 239.14 731.299 239.14Z"></path><path d="M590.663 239.144C565.422 239.144 545.229 232.694 530.084 219.795C514.941 206.851 507.433 188.972 507.433 166.013C507.433 139.592 516.105 116.951 533.45 98.0915C550.795 79.276 572.627 69.8906 598.946 69.9352C619.398 69.9352 636.483 76.3402 650.204 89.2838C663.925 102.227 670.785 119.975 670.785 142.66C670.764 152.098 669.679 161.502 667.549 170.681H556.879V172.682C556.879 178.019 560.245 183.758 567.105 190.03C573.966 196.302 583.026 199.37 594.417 199.37C609.95 199.37 622.118 196.034 631.049 189.361L646.322 223.389C631.437 233.935 612.927 239.144 590.663 239.144ZM561.927 137.455H626.647C626.905 137.188 627.035 136.388 627.035 135.054C627.035 128.783 624.447 123.044 619.399 117.706C614.35 112.369 606.843 109.7 596.876 109.7C588.422 109.575 580.22 112.664 573.835 118.377C567.364 124.113 563.35 130.517 561.927 137.455Z"></path><path d="M419.217 301C398.118 301 382.585 296.582 372.619 287.611L392.682 250.789C397.212 256.145 403.554 258.823 411.838 258.823C423.489 258.823 431.128 250.522 434.88 234.057L469.569 73.6506H519.404L484.584 234.053C475.265 278.639 453.475 300.956 419.217 301ZM500.505 59.3195C492.999 59.3195 486.784 56.7751 481.866 51.8172C479.516 49.5086 477.658 46.7213 476.411 43.6323C475.162 40.5434 474.552 37.2204 474.617 33.875C474.617 23.5652 477.983 15.3967 484.843 9.23764C491.704 3.07853 499.082 0.00439453 506.977 0.00439453C514.355 0.00439453 520.439 2.41416 525.229 7.36839C527.563 9.63208 529.414 12.3732 530.662 15.4166C531.91 18.4599 532.528 21.7384 532.477 25.0421C532.477 35.352 529.111 43.5195 522.381 49.8087C515.779 56.2399 508.401 59.3195 500.505 59.3195Z"></path><path d="M991.074 25.0874C991.074 35.3629 987.706 43.5024 980.979 49.7745C974.242 56.0466 966.998 59.1154 958.973 59.1154C951.465 59.1154 945.246 56.5844 940.329 51.6429C937.981 49.346 936.124 46.5694 934.875 43.4905C933.628 40.4117 933.016 37.0983 933.08 33.7621C933.08 23.4876 936.445 15.3471 943.308 9.20882C950.166 3.0705 957.543 0 965.446 0C972.822 0 978.909 2.40162 983.698 7.33867C986.059 9.60256 987.931 12.3513 989.202 15.4081C990.472 18.4648 991.111 21.762 991.074 25.0874Z" fill="#E0015B"></path><path d="M245.031 234.595H189.372L220.825 87.4086L134.618 234.595H110.024L86.9841 87.4086L55.6591 234.595H0L47.6339 12.147H122.968L141.737 135.18L213.322 12.147H292.539L245.031 234.595Z"></path><path d="M867.158 238.598C851.366 238.598 838.81 235.395 829.491 229.123C820.172 222.851 815.382 213.244 815.382 200.567C815.456 196.632 815.802 192.708 816.418 188.824L831.691 117.7H805.803L815.511 73.2633H841.4L850.848 29.2285H900.553L891.105 73.2642H922.816L913.108 117.7H881.396L869.747 172.412C869.113 174.806 868.765 177.27 868.711 179.752C868.711 188.691 873.63 193.095 883.598 193.095C887.869 193.095 891.106 192.161 893.305 190.426L893.953 231.526C888.257 236.33 879.325 238.598 867.158 238.598Z"></path><path d="M927.906 74.0694L893.347 235.135H943.185L977.864 73.9365H927.906V74.0694Z"></path><path d="M1045.7 239.14C1021.49 239.14 1002.17 232.289 987.706 218.59C973.207 204.845 965.963 187.097 965.963 165.08C965.963 138.391 974.854 115.884 992.626 97.559C1010.36 79.2774 1032.33 70.1144 1058.51 70.0698C1089.96 70.0698 1112.1 80.9677 1124.92 102.763L1087.64 131.853C1081.17 120.912 1071.33 115.44 1058.13 115.44C1046.08 115.44 1036.12 119.977 1028.23 128.918C1020.33 137.992 1016.45 148.935 1016.45 162.145C1016.45 171.886 1019.68 179.625 1026.16 185.364C1032.62 191.099 1040.78 193.901 1050.49 193.901C1061.87 193.901 1071.71 189.098 1080 179.49L1106.92 213.251C1100.45 220.324 1091.9 226.461 1081.29 231.667C1070.81 236.604 1058.9 239.14 1045.7 239.14Z"></path></svg>