<svg xmlns="http://www.w3.org/2000/svg" width="20" height="18" viewBox="0 0 20 18" fill="currentColor"><path d="M0 8.88131C0.119707 8.96899 0.232893 9.06524 0.338665 9.16931C0.555056 9.4121 0.820341 9.60639 1.11712 9.73942C1.41389 9.87246 1.73544 9.94123 2.06067 9.94123C2.38589 9.94123 2.70745 9.87246 3.00422 9.73942C3.30099 9.60639 3.56628 9.4121 3.78267 9.16931C3.891 9.02674 4.03083 8.91115 4.19124 8.83158C4.35164 8.75201 4.52828 8.7106 4.70733 8.7106C4.88639 8.7106 5.06302 8.75201 5.22343 8.83158C5.38383 8.91115 5.52367 9.02674 5.632 9.16931C5.84839 9.4121 6.11368 9.60639 6.41045 9.73942C6.70722 9.87246 7.02877 9.94123 7.354 9.94123C7.67923 9.94123 8.00078 9.87246 8.29755 9.73942C8.59432 9.60639 8.85961 9.4121 9.076 9.16931C9.18433 9.02674 9.32417 8.91115 9.48457 8.83158C9.64498 8.75201 9.82161 8.7106 10.0007 8.7106C10.1797 8.7106 10.3564 8.75201 10.5168 8.83158C10.6772 8.91115 10.817 9.02674 10.9253 9.16931C11.1417 9.4121 11.407 9.60639 11.7038 9.73942C12.0006 9.87246 12.3221 9.94123 12.6473 9.94123C12.9726 9.94123 13.2941 9.87246 13.5909 9.73942C13.8877 9.60639 14.1529 9.4121 14.3693 9.16931C14.4777 9.02674 14.6175 8.91115 14.7779 8.83158C14.9383 8.75201 15.1149 8.7106 15.294 8.7106C15.4731 8.7106 15.6497 8.75201 15.8101 8.83158C15.9705 8.91115 16.1103 9.02674 16.2187 9.16931C16.4364 9.41027 16.7019 9.60334 16.9982 9.73624C17.2945 9.86914 17.6152 9.93897 17.94 9.94131C18.2648 9.93897 18.5855 9.86914 18.8818 9.73624C19.1781 9.60334 19.4436 9.41027 19.6613 9.16931C19.7671 9.06524 19.8803 8.96899 20 8.88131V16.6733L18.8307 17.8426H1.16933L0 16.6746V8.88131Z"></path><path d="M20 5.06133V7.612C19.5665 7.74174 19.1748 7.98314 18.864 8.312C18.7538 8.45235 18.6136 8.56634 18.4538 8.64569C18.294 8.72503 18.1184 8.76773 17.94 8.77067C17.7616 8.76773 17.586 8.72503 17.4262 8.64569C17.2664 8.56634 17.1262 8.45235 17.016 8.312C16.7996 8.06921 16.5343 7.87492 16.2376 7.74188C15.9408 7.60885 15.6192 7.54007 15.294 7.54007C14.9688 7.54007 14.6472 7.60885 14.3504 7.74188C14.0537 7.87492 13.7884 8.06921 13.572 8.312C13.4637 8.45457 13.3238 8.57015 13.1634 8.64973C13.003 8.7293 12.8264 8.7707 12.6473 8.7707C12.4683 8.7707 12.2916 8.7293 12.1312 8.64973C11.9708 8.57015 11.831 8.45457 11.7227 8.312C11.5063 8.06921 11.241 7.87492 10.9442 7.74188C10.6474 7.60885 10.3259 7.54007 10.0007 7.54007C9.67544 7.54007 9.35389 7.60885 9.05712 7.74188C8.76034 7.87492 8.49506 8.06921 8.27867 8.312C8.17033 8.45457 8.0305 8.57015 7.8701 8.64973C7.70969 8.7293 7.53306 8.7707 7.354 8.7707C7.17494 8.7707 6.99831 8.7293 6.8379 8.64973C6.6775 8.57015 6.53767 8.45457 6.42933 8.312C6.21294 8.06921 5.94766 7.87492 5.65088 7.74188C5.35411 7.60885 5.03256 7.54007 4.70733 7.54007C4.38211 7.54007 4.06056 7.60885 3.76378 7.74188C3.46701 7.87492 3.20172 8.06921 2.98533 8.312C2.877 8.45457 2.73717 8.57015 2.57676 8.64973C2.41636 8.7293 2.23972 8.7707 2.06067 8.7707C1.88161 8.7707 1.70498 8.7293 1.54457 8.64973C1.38416 8.57015 1.24433 8.45457 1.136 8.312C0.825228 7.98314 0.433472 7.74174 0 7.612V5.06133L1.16933 3.892H18.8307L20 5.06133Z"></path><path d="M9.91306 2.72132H4.71306V1.32798H3.97573V0.157318H10.6504V1.32798H9.91306V2.72132Z"></path></svg>